PathFileType	4	(x/y/z)	S08_PSF_T13
DataRate	CameraRate	NumFrames	NumMarkers	Units	OrigDataRate	OrigDataStartFrame	OrigNumFrames
240	240	7	51	mm	240	53	422
Frame#	Time	Sternum			R.Acromium			L.Acromium			Top.Head			R.ASIS			L.ASIS			R.PSIS			L.PSIS			R.Great.Tro			L.Great.Tro			R.Iliac.Crest			L.Iliac.Crest			V.Sacral			R.Thigh.Upper.Post			R.Thigh.Lower.Ant			R.Thigh.Lower.Post			R.Thigh.Upper.Ant			R.Knee.Lat			R.Knee.Med			R.Shank.Upper.Post			R.Shank.Lower.Ant			R.Shank.Lower.Post			R.Shank.Upper.Ant			R.Ankle.Lat			R.Ankle.Med			R.Heel.Upper			R.Heel.Med			R.Heel.Lat			R.Toe.Lat			R.Toe.Med			R.Toe.Tip			L.Thigh.Upper.Post			L.Thigh.Lower.Ant			L.Thigh.Lower.Post			L.Thigh.Upper.Ant			L.Knee.Lat			L.Knee.Med			L.Shank.Upper.Post			L.Shank.Lower.Ant			L.Shank.Lower.Post			L.Shank.Upper.Ant			L.Ankle.Lat			L.Ankle.Med			L.Heel.Upper			L.Heel.Med			L.Heel.Lat			L.Toe.Lat			L.Toe.Med			L.Toe.Tip			Cervical.Spine			Back			
		X1	Y1	Z1	X2	Y2	Z2	X3	Y3	Z3	X4	Y4	Z4	X5	Y5	Z5	X6	Y6	Z6	X7	Y7	Z7	X8	Y8	Z8	X9	Y9	Z9	X10	Y10	Z10	X11	Y11	Z11	X12	Y12	Z12	X13	Y13	Z13	X14	Y14	Z14	X15	Y15	Z15	X16	Y16	Z16	X17	Y17	Z17	X18	Y18	Z18	X19	Y19	Z19	X20	Y20	Z20	X21	Y21	Z21	X22	Y22	Z22	X23	Y23	Z23	X24	Y24	Z24	X25	Y25	Z25	X26	Y26	Z26	X27	Y27	Z27	X28	Y28	Z28	X29	Y29	Z29	X30	Y30	Z30	X31	Y31	Z31	X32	Y32	Z32	X33	Y33	Z33	X34	Y34	Z34	X35	Y35	Z35	X36	Y36	Z36	X37	Y37	Z37	X38	Y38	Z38	X39	Y39	Z39	X40	Y40	Z40	X41	Y41	Z41	X42	Y42	Z42	X43	Y43	Z43	X44	Y44	Z44	X45	Y45	Z45	X46	Y46	Z46	X47	Y47	Z47	X48	Y48	Z48	X49	Y49	Z49	X50	Y50	Z50	X51	Y51	Z51	

53	0.21667	-1201.8	1221.9	324.83	-1322.2	1464	500.05	-1334.6	1486.5	164.05	-1317.7	1782	342.42	NaN	NaN	NaN	-1227.9	1019.1	196.94	NaN	NaN	NaN	NaN	NaN	NaN	-1304.2	890.92	500.6	-1316.8	915.65	134.32	-1328.6	1073.8	483.18	-1324.7	1102.1	175.75	-1447.7	998.57	310.68	-1301.9	691.82	490.25	-1209.2	600.51	473.28	-1288	604.03	474.93	-1222.4	693.35	487.73	-1241.7	502.04	468.15	-1250.1	501.29	333.47	-1413.4	424.43	471.53	-1418.4	334.52	451.68	-1467.5	374	463.2	-1357.1	383.96	460.73	-1602.6	275.86	434.61	-1568	253.8	357.27	-1647.8	301.37	381.08	-1659.5	280.97	351.31	-1666.1	288.45	414.06	-1608.6	120.25	460.11	-1582.5	112.1	347.73	-1507.8	77.8	386.4	-1288.7	704.13	151.19	-1187.6	634.05	174.88	-1254.7	621.03	170.63	-1216.1	714.57	151.2	-1218.4	523.96	193.01	-1219.4	525.81	317.3	-1265.4	339.08	193.74	-1192.3	257.96	219.5	-1265.7	266.5	211.34	-1199.7	330.99	201.78	-1238.6	96.952	230.81	-1215.3	107.17	319.54	-1288	73.232	281.55	-1275.5	40.201	311.67	-1280.1	47.881	248.42	-1104.3	41.359	217.94	-1088.1	47.276	331.73	-1023.8	67.297	284.58	-1397.7	1521.7	328.31	-1442	1237.7	340.31
54	0.22083	-1196.6	1222.7	324.73	-1317.1	1464.8	499.88	-1329.3	1487.3	163.86	-1312.4	1782.8	342.14	NaN	NaN	NaN	-1222.3	1020	195.7	NaN	NaN	NaN	NaN	NaN	NaN	-1298.3	891.76	500.23	-1311.9	916.37	134.08	-1323.5	1074.5	482.84	-1319.5	1103	175.48	-1442.4	999.25	310.31	-1293.3	692.77	489.75	-1200.3	602.29	473.06	-1278.2	605.07	474.38	-1214	695.21	487.28	-1230.9	503.72	467.85	-1239.9	502.9	332.99	-1402	425.7	471.69	-1406.8	335.96	451.67	-1456.2	375.1	463.45	-1347.6	385.14	460.56	-1591.3	276.92	434.84	-1557.2	255.07	357.52	-1637.4	301.78	381.56	-1649.1	281.06	351.91	-1655.2	288.71	414.55	-1595.7	121.47	460.99	-1569.9	113.26	348.48	-1494.4	79.354	387.19	-1285.4	704.78	151.04	-1185.1	633.83	174.51	-1252.1	621.42	170.44	-1213	714.56	150.95	-1216.3	524.02	192.88	-1217	526.04	317.1	-1264.5	339.34	193.81	-1191.7	257.92	219.34	-1265.2	266.75	211.5	-1198.9	330.89	201.61	-1238.5	97.044	230.91	-1215.1	107.27	319.6	-1288	73.38	281.53	-1275.5	40.285	311.65	-1280	47.952	248.4	-1104.2	41.278	217.87	-1088.1	47.23	331.87	-1023.8	67.107	284.58	-1392.3	1522.5	328.06	-1436.9	1238.5	339.95
55	0.225	-1191.3	1223.5	324.64	-1312	1465.7	499.71	-1324	1488.1	163.68	-1307.1	1783.6	341.87	-1218.4	1005.8	433.36	-1217	1020.9	194.91	NaN	NaN	NaN	NaN	NaN	NaN	-1292.4	892.64	499.89	-1307	917.08	133.86	-1318.4	1075.4	482.52	-1314.3	1103.8	175.2	-1437.2	999.95	309.95	-1284.7	693.78	489.24	-1191.3	604.18	472.77	-1268.4	606.18	473.81	-1205.7	697.13	486.81	-1220.2	505.48	467.51	-1229.8	504.58	332.5	-1390.7	426.89	471.8	-1395.2	337.27	451.63	-1444.9	376.03	463.66	-1337.7	386.34	460.38	-1579.9	277.69	435.04	-1546.1	256.07	357.74	-1626.8	301.8	381.99	-1638.7	280.71	352.51	-1644.3	288.55	415	-1582.4	122.43	461.89	-1557	114.17	349.24	-1480.9	80.7	388.07	-1282.2	705.43	150.9	-1182.7	633.61	174.15	-1249.5	621.82	170.26	-1209.8	714.58	150.69	-1214.3	524.09	192.75	-1214.7	526.26	316.92	-1263.6	339.6	193.87	-1191.1	257.88	219.19	-1264.6	267	211.64	-1198.1	330.8	201.45	-1238.4	97.139	231	-1214.9	107.38	319.66	-1288	73.549	281.51	-1275.5	40.379	311.63	-1279.9	48.035	248.37	-1104.2	41.189	217.81	-1088.1	47.18	332.02	-1023.8	66.911	284.57	-1386.9	1523.4	327.82	-1431.8	1239.4	339.59
56	0.22917	-1186.1	1224.4	324.55	-1307	1466.5	499.55	-1318.8	1489	163.51	-1301.8	1784.4	341.62	-1214	1006.9	433.27	-1211.8	1021.7	194.47	NaN	NaN	NaN	NaN	NaN	NaN	-1286.6	893.57	499.56	-1302.1	917.78	133.66	-1313.3	1076.2	482.2	-1309	1104.6	174.91	-1431.9	1000.7	309.6	-1276.2	694.86	488.74	-1182.3	606.17	472.42	-1258.7	607.35	473.25	-1197.4	699.12	486.33	-1209.6	507.31	467.12	-1219.8	506.32	331.99	-1379.4	428	471.88	-1383.7	338.45	451.56	-1433.6	376.81	463.83	-1327.5	387.55	460.17	-1568.3	278.15	435.22	-1535	256.8	357.94	-1616.2	301.44	382.38	-1628.1	279.94	353.12	-1633.3	287.98	415.43	-1568.8	123.14	462.79	-1543.7	114.82	350.01	-1467.3	81.815	389.05	-1279	706.08	150.77	-1180.2	633.39	173.83	-1246.9	622.22	170.07	-1206.7	714.61	150.42	-1212.4	524.16	192.63	-1212.5	526.45	316.75	-1262.7	339.85	193.91	-1190.5	257.84	219.06	-1264	267.25	211.77	-1197.2	330.73	201.29	-1238.2	97.241	231.09	-1214.7	107.49	319.7	-1288.1	73.733	281.49	-1275.5	40.482	311.61	-1279.9	48.127	248.34	-1104.1	41.093	217.74	-1088	47.124	332.16	-1023.7	66.705	284.55	-1381.5	1524.2	327.59	-1426.7	1240.3	339.23
57	0.23333	-1181	1225.2	324.47	-1301.9	1467.3	499.39	-1313.5	1489.8	163.34	-1296.4	1785.2	341.39	-1209.4	1008	433.17	-1206.7	1022.5	194.3	NaN	NaN	NaN	NaN	NaN	NaN	-1280.8	894.53	499.26	-1297.2	918.47	133.47	-1308.3	1077.1	481.89	-1303.7	1105.4	174.61	-1426.7	1001.4	309.25	-1267.8	695.98	488.25	-1173.3	608.23	472.02	-1248.9	608.59	472.68	-1189.1	701.15	485.84	-1199.1	509.22	466.71	-1209.9	508.11	331.46	-1368.3	429.02	471.91	-1372.3	339.51	451.48	-1422.4	377.43	463.96	-1317	388.76	459.95	-1556.7	278.32	435.37	-1523.7	257.24	358.11	-1605.5	300.7	382.74	-1617.4	278.74	353.72	-1622.2	287.01	415.83	-1554.8	123.6	463.7	-1530.1	115.23	350.78	-1453.7	82.68	390.13	-1275.8	706.73	150.64	-1177.8	633.17	173.54	-1244.3	622.63	169.88	-1203.5	714.67	150.15	-1210.4	524.24	192.51	-1210.3	526.63	316.6	-1261.8	340.11	193.94	-1189.9	257.8	218.94	-1263.4	267.5	211.88	-1196.4	330.68	201.13	-1238	97.347	231.18	-1214.5	107.61	319.73	-1288.1	73.929	281.46	-1275.5	40.594	311.59	-1279.8	48.227	248.31	-1104.1	40.991	217.67	-1088	47.06	332.31	-1023.6	66.488	284.54	-1376.1	1525	327.36	-1421.6	1241.2	338.88
58	0.2375	-1175.8	1226.1	324.39	-1296.7	1468.1	499.22	-1308.3	1490.7	163.19	-1291.1	1786.1	341.17	-1204.6	1009.1	433.06	-1201.7	1023.3	194.35	NaN	NaN	NaN	NaN	NaN	NaN	-1275	895.53	498.98	-1292.3	919.16	133.29	-1303.2	1078.1	481.6	-1298.4	1106.2	174.31	-1421.5	1002.2	308.92	-1259.3	697.15	487.78	-1164.4	610.36	471.56	-1239.3	609.88	472.14	-1180.9	703.22	485.33	-1188.8	511.18	466.25	-1200.1	509.96	330.92	-1357.2	429.95	471.89	-1360.8	340.43	451.38	-1411.2	377.88	464.05	-1306.2	389.94	459.71	-1544.9	278.18	435.51	-1512.2	257.39	358.26	-1594.7	299.59	383.06	-1606.5	277.14	354.32	-1611.1	285.65	416.21	-1540.6	123.81	464.62	-1516.2	115.4	351.56	-1440	83.284	391.3	-1272.6	707.37	150.51	-1175.3	632.95	173.27	-1241.7	623.04	169.68	-1200.2	714.73	149.88	-1208.5	524.32	192.39	-1208.2	526.79	316.45	-1260.9	340.37	193.95	-1189.3	257.77	218.84	-1262.8	267.76	211.98	-1195.5	330.64	200.99	-1237.9	97.46	231.27	-1214.3	107.74	319.75	-1288.1	74.13	281.44	-1275.5	40.714	311.58	-1279.8	48.336	248.28	-1104	40.884	217.61	-1088	46.984	332.46	-1023.6	66.257	284.52	-1370.6	1525.8	327.12	-1416.5	1242.1	338.53
59	0.24167	-1170.8	1226.9	324.31	-1291.6	1468.9	499.06	-1303.2	1491.5	163.05	-1285.7	1786.9	340.97	-1199.8	1010.2	432.94	-1196.7	1024.1	194.54	NaN	NaN	NaN	NaN	NaN	NaN	-1269.3	896.56	498.72	-1287.5	919.83	133.13	-1298.2	1079	481.31	-1293.1	1106.9	174	-1416.3	1003	308.6	-1251	698.36	487.33	-1155.4	612.55	471.05	-1229.7	611.23	471.62	-1172.8	705.32	484.82	-1178.6	513.19	465.77	-1190.3	511.84	330.38	-1346.1	430.77	471.84	-1349.4	341.23	451.27	-1400	378.17	464.1	-1295.3	391.1	459.45	-1533	277.75	435.64	-1500.7	257.27	358.4	-1583.7	298.12	383.36	-1595.4	275.16	354.91	-1600	283.9	416.59	-1526.2	123.79	465.54	-1502.1	115.34	352.33	-1426.2	83.624	392.57	-1269.4	708.01	150.38	-1172.8	632.73	173.04	-1239.2	623.45	169.48	-1197	714.81	149.62	-1206.6	524.41	192.28	-1206.2	526.94	316.32	-1260	340.62	193.95	-1188.8	257.74	218.75	-1262.2	268.02	212.06	-1194.6	330.63	200.85	-1237.7	97.58	231.35	-1214.1	107.86	319.76	-1288.1	74.332	281.43	-1275.5	40.842	311.57	-1279.7	48.451	248.25	-1104	40.775	217.54	-1087.9	46.892	332.6	-1023.5	66.008	284.5	-1365.1	1526.6	326.9	-1411.5	1243	338.19
